<svg width="24" height="25" viewBox="0 0 24 25" fill="none" xmlns="http://www.w3.org/2000/svg">
<path d="M8 10.5L16 10.5" stroke="#696969" stroke-width="1.5" stroke-linecap="round" stroke-linejoin="round"/>
<path d="M7 14.5L8 14.5" stroke="#696969" stroke-width="1.5" stroke-linecap="round" stroke-linejoin="round"/>
<path d="M16 14.5L17 14.5" stroke="#696969" stroke-width="1.5" stroke-linecap="round" stroke-linejoin="round"/>
<path d="M3 18.5V11.9105C3 11.6397 3.05502 11.3716 3.16171 11.1227L5.4805 5.71216C5.79566 4.97679 6.51874 4.5 7.31879 4.5H16.6812C17.4813 4.5 18.2043 4.97679 18.5195 5.71216L20.8383 11.1227C20.945 11.3716 21 11.6397 21 11.9105V18.5M3 18.5V20.9C3 21.2314 3.26863 21.5 3.6 21.5H6.4C6.73137 21.5 7 21.2314 7 20.9V18.5M3 18.5H7M21 18.5V20.9C21 21.2314 20.7314 21.5 20.4 21.5H17.6C17.2686 21.5 17 21.2314 17 20.9V18.5M21 18.5H17M7 18.5H17" stroke="#696969" stroke-width="1.5"/>
</svg>
