<svg width="200" height="458" viewBox="0 0 200 458" fill="none" xmlns="http://www.w3.org/2000/svg">
<g opacity="0.2" clip-path="url(#clip0_61_2473)">
<path d="M183.074 164.847L183.591 209.341M128.984 104.574C128.984 104.574 125.575 70.4469 121.479 48.4411C117.385 26.4354 114.749 18.1743 114.749 18.1743M169.613 156.829L169.099 157.862C167.732 155.31 166.893 160.157 166.769 162.261C166.647 164.362 168.014 163.544 168.582 162.777C169.145 162.011 171.17 158.122 171.17 158.122M174.533 158.898C171.012 158.898 167.03 154.49 167.03 152.431C167.03 150.372 170.104 148.293 174.533 148.293M174.533 148.292C178.962 148.292 182.041 150.371 182.041 152.43C182.041 154.489 178.056 158.897 174.533 158.897M178.414 148.808C178.382 147.475 179.19 147.256 179.19 147.256C181.896 149.709 189.425 154.308 192.389 156.569C195.355 158.83 199.457 164.72 199.897 166.139C200.336 167.561 197.477 168.305 194.719 167.691C191.962 167.077 183.455 164.948 182.558 164.586C181.657 164.225 180.334 163.497 180.227 162.517C180.121 161.539 179.451 157.085 179.451 157.085M136.488 3.43058C136.488 3.43058 140.466 2.35641 142.701 2.3975C144.936 2.43624 148.747 4.60453 151.756 6.79396C154.768 8.98221 167.382 19.3694 169.874 22.0554C172.368 24.7437 176.342 30.8518 176.342 30.8518L177.898 32.1443C177.898 32.1443 182.182 44.8007 183.33 48.4423C184.479 52.0816 185.394 58.6921 185.918 65.7734C186.442 72.8547 186.631 81.3166 186.697 89.8289C186.759 98.3471 186.359 120.806 186.18 123.458C185.995 126.112 185.149 130.735 185.144 133.288C185.137 135.842 185.401 152.171 185.401 152.171M185.662 165.366L185.919 216.583M152.277 9.12191C152.277 9.12191 140.322 4.36505 135.972 3.43058C131.622 2.49611 119.699 0.844357 100 0.844356C80.299 0.844355 68.3756 2.49611 64.0252 3.43058C59.6784 4.36504 47.7232 9.1219 47.7232 9.1219M143.736 10.9321C143.736 10.9321 147.573 11.6647 151.241 13.0007C154.909 14.3425 158.724 16.9674 165.993 23.8668C173.259 30.7661 175.655 35.645 178.414 45.0801C181.176 54.5117 180.227 62.4112 180.227 62.4112C178.378 59.8661 177.016 54.568 175.569 48.4423C174.12 42.3166 171.016 36.9775 169.356 34.7305C167.701 32.4859 163.537 28.0378 159.782 24.3833C156.027 20.73 144.973 11.7727 142.183 9.63845C139.395 7.50655 132.606 2.91404 132.606 2.91404M100 11.7081C109.704 11.7081 128.718 11.8877 134.161 12.227C139.603 12.5639 147.879 14.2955 147.879 14.2955M176.086 148.292C176.086 148.292 175.069 125.299 174.791 119.319C174.516 113.339 173.778 94.8088 173.496 88.5352C173.217 82.2639 172.729 73.943 171.944 63.4431C171.159 52.9433 169.099 34.4723 169.099 34.4723M168.063 122.681C170.823 122.729 172.344 121.352 172.981 119.838C173.616 118.318 174.791 118.025 174.791 118.025M139.336 10.1573C139.336 10.1573 148.656 28.255 151.758 36.799C154.862 45.3466 163.056 73.3947 166.252 87.5021C169.446 101.606 173.24 123.976 173.24 123.976M177.9 57.753C178.914 64.4386 180.651 84.6741 181.004 92.6746C181.354 100.677 182.157 125.576 182.298 129.925C182.439 134.275 182.815 149.845 182.815 149.845M185.145 135.876C185.145 135.876 182.871 136.802 181.779 136.909C180.689 137.016 175.828 141.307 175.828 141.307L171.688 144.41M170.91 148.808L175.05 127.08M16.4065 209.341L16.9233 164.847M100 413.954C87.6654 413.954 73.0547 412.724 64.5432 411.368C56.0316 410.014 52.7959 408.258 48.7568 401.798C44.7212 395.34 43.1885 393.072 43.32 386.536C43.4563 379.999 45.1957 340.739 45.393 331.695C45.5892 322.656 46.7719 281.5 46.6873 272.459C46.5992 263.419 46.0754 236.494 45.3931 227.191C44.7107 217.887 43.01 198.521 41.7697 191.492C40.5295 184.465 35.4733 157.808 34.7815 154.241C34.0897 150.675 30.2526 132.725 30.6414 128.633C31.029 124.54 31.8335 121.87 35.0399 116.993C38.2486 112.112 42.6753 109.111 45.911 108.456C49.1467 107.801 65.8833 105.171 72.3078 104.575C79.074 103.949 93.6519 103.281 100 103.281M41.7697 191.232C41.7697 191.232 61.4002 188.99 69.9799 188.645C78.5596 188.301 93.875 187.869 100 187.869C106.121 187.869 121.44 188.301 130.02 188.645C138.6 188.989 158.228 191.232 158.228 191.232M45.6503 331.694C45.6503 331.694 53.2246 334.482 66.6126 335.576C80.0031 336.673 95.1023 336.869 100 336.869C104.895 336.869 119.995 336.673 133.385 335.576C146.773 334.482 154.345 331.694 154.345 331.694M74.6368 336.352C74.6368 336.352 77.8749 339.88 83.954 340.231C90.0344 340.583 98.1161 340.75 99.9988 340.75M18.7367 334.283C18.7367 334.283 19.8842 362.223 20.5489 371.274C21.209 380.323 22.952 396.919 23.3936 399.988C23.8375 403.055 25.0825 405.833 25.7214 407.749C26.3651 409.663 28.2607 415.63 30.3818 420.682C32.5006 425.735 36.286 432.659 40.2159 435.943C44.1457 439.226 53.3009 443.589 61.6985 445.513C70.0938 447.44 89.7478 449.395 100 449.395C110.25 449.395 129.904 447.44 138.301 445.513C146.697 443.591 155.854 439.226 159.781 435.943C163.709 432.659 167.493 425.735 169.612 420.682C171.736 415.63 173.631 409.662 174.275 407.749C174.914 405.831 176.159 403.054 176.603 399.988C177.047 396.919 178.787 380.323 179.45 371.274C180.113 362.223 181.261 334.283 181.261 334.283M18.7367 334.283C18.7367 334.283 19.984 333.688 20.0298 332.214C20.0756 330.737 20.0298 326.006 20.0298 326.006L20.0298 326.004C20.0298 326.004 18.0872 325.983 17.702 324.968C17.3144 323.956 17.224 320.813 17.4401 319.02C17.6585 317.225 19.5131 317.468 19.5131 317.468C19.5131 317.468 19.3604 314.277 19.2535 312.553C19.1442 310.828 17.9604 309.964 17.9604 309.964C16.1376 312.693 15.2907 320.852 15.8897 326.519C16.4911 332.189 18.7367 334.283 18.7367 334.283ZM100 457.156C84.472 457.156 62.1672 456.08 47.2041 450.945C32.241 445.814 30.2973 440.586 28.8315 438.013C27.361 435.441 23.4159 425.57 21.5813 416.543C19.7491 407.518 17.2803 396.621 16.1469 391.452C15.0159 386.282 14.1985 379.002 13.8191 371.794C13.4397 364.582 13.6711 332.475 13.8191 328.849C13.9694 325.23 15.2097 314.824 15.1122 310.485C15.0159 306.143 14.6072 281.378 14.5931 275.564C14.5837 269.748 14.0787 226.673 14.0787 226.673M38.0125 112.941C38.0125 112.941 40.2112 112.861 43.1897 112.424C46.1659 111.987 61.8207 111.648 61.8207 111.648L62.408 112.49C62.408 112.49 98.3557 112.155 102.455 112.165C106.551 112.176 126.004 112.683 126.004 112.683L125.745 111.13C125.745 111.13 95.6321 110.407 91.0668 110.354C85.7052 110.292 69.5125 109.745 62.5994 109.578C55.684 109.41 51.6578 108.991 50.9543 109.321C50.2472 109.649 49.1362 110.204 47.8478 110.095C46.557 109.988 43.4469 109.578 43.4469 109.578M160.815 112.334C160.815 112.334 157.964 112.422 154.864 112.076C151.765 111.73 128.008 109.205 121.739 109.231C115.467 109.258 73.0688 107.868 73.0688 107.868L73.3284 106.574C73.3284 106.574 118.548 107.147 127.433 107.678C136.315 108.212 146.582 108.194 146.582 108.194C146.582 108.194 148.978 109.543 150.462 109.488C151.95 109.432 156.158 109.231 156.158 109.231M100 103.28C106.347 103.28 120.927 103.947 127.691 104.574C134.116 105.17 150.853 107.8 154.088 108.455C157.322 109.11 161.75 112.111 164.958 116.992C168.164 121.868 168.968 124.539 169.356 128.632C169.745 132.724 165.908 150.674 165.216 154.24C164.527 157.807 159.469 184.464 158.229 191.491C156.989 198.519 155.287 217.886 154.608 227.19C153.926 236.493 153.4 263.419 153.314 272.457C153.227 281.499 154.408 322.656 154.608 331.694C154.804 340.738 156.543 379.997 156.676 386.535C156.813 393.071 155.281 395.339 151.242 401.797C147.203 408.257 143.968 410.013 135.457 411.367C126.943 412.723 112.336 413.953 100.001 413.953M100 340.751C101.882 340.751 109.963 340.583 116.044 340.232C122.124 339.88 125.361 336.353 125.361 336.353M47.2041 399.728C47.2041 399.728 43.6407 405.308 42.8068 406.973C41.9694 408.634 42.142 412.048 42.29 413.954C42.4333 415.866 43.2637 437.177 43.5808 438.273C43.9014 439.367 44.6167 441.894 44.6167 441.894M24.1711 403.609C24.1711 403.609 23.1035 406.438 23.9115 410.851C24.7219 415.264 28.7223 430.23 33.7456 435.426C38.7724 440.62 46.2504 443.728 65.0599 446.21M31.6749 163.296C31.6749 163.296 36.3271 185.852 37.3689 193.819C38.413 201.783 41.0486 221.016 40.9934 234.172C40.937 247.329 41.4115 268.628 41.2529 275.563C41.0897 282.496 39.6627 310.538 38.9228 319.538C38.1558 328.859 35.9689 355.799 35.559 358.858C35.1491 361.915 35.2184 366.854 33.4884 364.031C31.756 361.207 28.465 354.111 27.7944 349.286C27.125 344.461 26.3157 331.653 25.9833 325.23C25.6463 318.806 24.413 289.865 23.9104 279.702C23.4077 269.537 22.5973 241.4 22.6172 234.69C22.6384 227.977 22.8569 200.365 22.8768 190.456C22.8944 180.547 23.6532 158.898 23.6532 158.898M39.18 317.726L27.0181 336.87C27.0181 336.87 23.2386 339.049 21.5813 340.493C19.9288 341.933 19.028 343.639 17.4412 340.752C15.858 337.861 14.303 333.373 13.8203 329.369M17.9604 309.708C17.9604 309.708 17.1711 279.442 16.9245 270.129C16.679 260.815 16.6673 233.914 16.6673 233.914M41.2529 251.507C41.2529 251.507 32.3362 249.38 22.878 244.003C22.878 244.003 19.9441 242.002 18.7379 241.157C17.5317 240.313 16.5944 240.25 15.8909 239.864C15.1874 239.476 14.081 238.311 14.081 238.311M41.2529 258.489C41.2529 258.489 30.5157 256.596 23.1375 252.8M25.9833 321.35L29.3471 322.9C29.3471 322.9 30.9397 323.759 31.9345 321.864C32.9293 319.972 39.4395 308.932 39.4395 308.932M185.919 226.672C185.919 226.672 185.416 269.748 185.402 275.563C185.39 281.377 184.985 306.142 184.885 310.484C184.786 314.824 186.028 325.229 186.182 328.848C186.33 332.473 186.558 364.581 186.182 371.793C185.802 379.001 184.983 386.28 183.852 391.451C182.718 396.621 180.251 407.517 178.415 416.541C176.583 425.568 172.639 435.44 171.171 438.012C169.703 440.586 167.759 445.814 152.796 450.944C137.835 456.08 115.526 457.154 100.002 457.154M23.6543 159.672L32.4525 166.139M33.2288 170.279L23.6543 162.518M40.9934 244.522C40.9934 244.522 27.933 238.389 22.878 232.363M155.381 441.894C155.381 441.894 156.097 439.367 156.417 438.273C156.735 437.178 157.565 415.866 157.711 413.954C157.857 412.048 158.032 408.634 157.192 406.973C156.357 405.308 152.795 399.728 152.795 399.728M134.935 446.21C153.747 443.728 161.223 440.62 166.252 435.426C171.279 430.23 175.278 415.264 176.086 410.851C176.894 406.438 175.827 403.609 175.827 403.609M176.345 158.898C176.345 158.898 177.102 180.547 177.121 190.456C177.14 200.366 177.36 227.977 177.38 234.69C177.402 241.4 176.589 269.537 176.086 279.702C175.583 289.864 174.351 318.806 174.017 325.23C173.678 331.654 172.874 344.461 172.203 349.286C171.536 354.111 168.242 361.207 166.509 364.031C164.777 366.854 164.852 361.915 164.441 358.858C164.031 355.799 161.839 328.859 161.075 319.538C160.337 310.538 158.906 282.496 158.747 275.563C158.587 268.629 159.059 247.329 159.004 234.172C158.948 221.016 161.583 201.783 162.628 193.819C163.668 185.852 168.322 163.296 168.322 163.296M186.181 329.368C185.693 333.372 184.142 337.86 182.558 340.751C180.97 343.638 180.072 341.932 178.414 340.492C176.759 339.048 172.98 336.869 172.98 336.869L160.815 317.725M183.332 233.914C183.332 233.914 183.32 260.815 183.074 270.129C182.827 279.442 182.041 309.708 182.041 309.708M185.919 238.312C185.919 238.312 184.811 239.476 184.108 239.865C183.404 240.251 182.467 240.313 181.261 241.159C180.057 242.003 177.121 244.004 177.121 244.004C167.665 249.38 158.748 251.508 158.748 251.508M176.864 252.801C169.483 256.597 158.748 258.49 158.748 258.49M160.558 308.932C160.558 308.932 167.068 319.973 168.063 321.864C169.058 323.759 170.651 322.9 170.651 322.9L174.017 321.35M167.546 166.139L176.345 159.672M176.345 162.518L166.77 170.279M177.121 232.363C172.068 238.389 159.005 244.522 159.005 244.522M85.2483 18.1754C85.2483 18.1754 82.6128 26.4354 78.5185 48.4423C74.4266 70.4481 71.0135 104.575 71.0135 104.575M28.8315 158.122C28.8315 158.122 30.8528 162.011 31.4189 162.777C31.9815 163.544 33.351 164.362 33.2288 162.261C33.1055 160.157 32.2657 155.31 30.8986 157.862L30.3818 156.829M25.4642 148.292C29.8956 148.292 32.9716 150.371 32.9716 152.43C32.9716 154.489 28.9865 158.897 25.4642 158.897M25.4642 158.898C21.9431 158.898 17.9604 154.49 17.9604 152.431C17.9604 150.372 21.0352 148.293 25.4642 148.293M20.549 157.086C20.549 157.086 19.8795 161.54 19.7703 162.518C19.6634 163.498 18.3409 164.226 17.4401 164.587C16.5416 164.949 8.03472 167.079 5.28053 167.693C2.52047 168.307 -0.338248 167.562 0.103363 166.141C0.540275 164.721 4.64161 158.832 7.60721 156.571C10.5705 154.309 18.1001 149.71 20.8062 147.258C20.8062 147.258 21.6142 147.476 21.5802 148.81M14.5931 152.171C14.5931 152.171 14.8597 135.841 14.855 133.287C14.848 130.735 14 126.111 13.8191 123.458C13.6371 120.806 13.2366 98.3471 13.2988 89.8289C13.3669 81.3165 13.5537 72.8547 14.0787 65.7734C14.6002 58.6921 15.5174 52.0816 16.6661 48.4423C17.8136 44.8007 22.1005 32.1443 22.1005 32.1443L23.6543 30.8518C23.6543 30.8518 27.63 24.7425 30.1246 22.0554C32.6169 19.3693 45.2286 8.9822 48.24 6.79395C51.2503 4.6057 55.0603 2.43624 57.2954 2.3975C59.5328 2.35641 63.5085 3.43058 63.5085 3.43058M14.0798 216.583L14.3371 165.366M67.3902 2.91404C67.3902 2.91404 60.6039 7.50654 57.8157 9.63844C55.0274 11.7727 43.9719 20.73 40.2171 24.3833C36.4622 28.0366 32.2975 32.4859 30.6426 34.7305C28.9854 36.9763 25.8812 42.3166 24.4318 48.4423C22.9825 54.568 21.6213 59.8661 19.7714 62.4112C19.7714 62.4112 18.8248 54.5117 21.5825 45.0801C24.3449 35.645 26.7374 30.7661 34.0063 23.8668C41.2753 16.9674 45.0936 14.3425 48.758 13.0006C52.4224 11.6635 56.2618 10.9321 56.2618 10.9321M52.1206 14.2967C52.1206 14.2967 60.3949 12.5651 65.8387 12.2282C71.2801 11.8877 90.294 11.7093 100 11.7093M30.8986 34.4734C30.8986 34.4734 28.8374 52.9444 28.0516 63.4443C27.2683 73.9441 26.782 82.2651 26.5013 88.5364C26.2171 94.81 25.4842 113.34 25.2058 119.32C24.931 125.3 23.9115 148.293 23.9115 148.293M25.2047 118.026C25.2047 118.026 26.3839 118.32 27.0181 119.839C27.6511 121.353 29.1756 122.73 31.9357 122.682M26.7585 123.977C26.7585 123.977 30.5521 101.607 33.7456 87.5033C36.9426 73.3959 45.1358 45.3478 48.24 36.8002C51.3419 28.2562 60.6627 10.1585 60.6627 10.1585M17.1828 149.844C17.1828 149.844 17.561 134.275 17.702 129.924C17.8382 125.575 18.6416 100.677 18.9951 92.6734C19.3439 84.6729 21.0845 64.4374 22.0993 57.7518M28.3112 144.411L24.1711 141.308C24.1711 141.308 19.3099 137.016 18.2199 136.91C17.1277 136.803 14.8562 135.877 14.8562 135.877M24.9475 127.08L29.0875 148.808M18.2199 225.637C18.2199 225.637 18.0696 229.717 17.9604 231.328C17.8512 232.939 16.6661 233.914 16.6661 233.914C16.6661 233.914 13.9718 231.486 13.8191 225.118C13.6664 218.751 14.5203 211.865 16.6661 209.342C16.6661 209.342 17.8018 210.587 17.9604 212.702C18.1201 214.82 17.9604 216.583 17.9604 216.583C17.9604 216.583 16.1693 216.731 15.8897 218.136C15.6079 219.54 15.3389 223.689 15.8897 224.604C16.4406 225.518 18.2199 225.638 18.2199 225.638L18.2199 225.637ZM182.298 324.97C182.684 323.958 182.771 320.814 182.558 319.021C182.339 317.226 180.485 317.469 180.485 317.469C180.485 317.469 180.637 314.278 180.744 312.554C180.851 310.829 182.041 309.965 182.041 309.965C183.861 312.695 184.71 320.852 184.109 326.52C183.508 332.191 181.262 334.284 181.262 334.284C181.262 334.284 180.015 333.69 179.968 332.215C179.924 330.737 179.968 326.007 179.968 326.007C179.968 326.007 181.909 325.985 182.298 324.972L182.298 324.97ZM184.108 224.602C184.661 223.688 184.387 219.54 184.108 218.135C183.828 216.731 182.04 216.582 182.04 216.582C182.04 216.582 181.88 214.819 182.04 212.701C182.197 210.585 183.33 209.341 183.33 209.341C185.476 211.864 186.33 218.751 186.18 225.117C186.025 231.485 183.33 233.913 183.33 233.913C183.33 233.913 182.149 232.939 182.04 231.327C181.928 229.716 181.778 225.635 181.778 225.635C181.778 225.635 183.556 225.517 184.108 224.601L184.108 224.602Z" stroke="white" stroke-width="2" stroke-miterlimit="10" stroke-linecap="round" stroke-linejoin="round"/>
</g>
<defs>
<clipPath id="clip0_61_2473">
<rect width="456.429" height="200" fill="white" transform="translate(200 0.785645) rotate(90)"/>
</clipPath>
</defs>
</svg>
