<svg width="251" height="52" viewBox="0 0 251 52" fill="none" xmlns="http://www.w3.org/2000/svg">
<g clip-path="url(#clip0_183_3134)">
<path d="M8.99054 18.1422L22.736 10.2787L31.7207 15.4209L40.7112 10.2787L22.736 0L0 13V33.5631L8.99054 28.4209V18.1422Z" fill="url(#paint0_radial_183_3134)"/>
<path d="M0.810959 13.4622L22.736 0.924438L39.0951 10.2787L31.7207 14.4964L22.736 9.35422L8.18542 17.68V27.9587L0.810959 32.1707V13.4622Z" fill="url(#paint1_linear_183_3134)"/>
<path d="M22.736 41.7156L8.99638 33.8578L0 39L22.736 52L32.3449 46.5053V36.2209L22.736 41.7156Z" fill="#C6322D"/>
<path d="M36.4814 18.1422L22.736 26V36.2036L36.4814 28.3458C36.4814 28.3458 45.472 22.6084 45.472 35.9436V13L36.4814 18.1422Z" fill="#C6322D"/>
<path d="M23.5469 26.4622L44.6668 14.3867V28.548C43.5175 26.8089 41.9189 26.312 40.472 26.312C38.1908 26.312 36.1313 27.612 36.0438 27.664L23.5469 34.8111V26.4622Z" fill="url(#paint2_linear_183_3134)"/>
<path d="M36.4814 28.34V33.852L32.3449 36.2151V46.4996L45.4719 38.9942V35.9378C45.4719 22.6027 36.4814 28.34 36.4814 28.34Z" fill="url(#paint3_linear_183_3134)"/>
<path d="M36.4814 28.34V33.852L32.3449 36.2151L22.736 41.7098L8.99637 33.852L0 39L22.736 52L32.3449 46.5053L45.4719 39V35.9435C45.4719 22.6084 36.4814 28.3458 36.4814 28.3458V28.34Z" fill="url(#paint4_linear_183_3134)"/>
<path d="M1.62192 39L8.99638 34.7822L22.736 42.64L37.2865 34.32V28.808C37.8933 28.4902 39.171 27.9182 40.472 27.9182C43.2549 27.9182 44.6668 30.6164 44.6668 35.9435V38.5378L22.7418 51.0755L1.62192 39Z" fill="url(#paint5_linear_183_3134)"/>
<path d="M73.4529 14.1902L69.7832 15.236C69.9407 14.1267 69.7248 13.2022 69.1356 12.48C68.5463 11.7578 67.7062 11.388 66.6035 11.388C65.7751 11.388 64.9174 11.7982 64.019 12.6187C63.1205 13.4391 62.3504 14.4271 61.7086 15.5884C61.061 16.7498 60.5709 17.9284 60.2267 19.1244C59.935 20.3493 59.7716 21.5338 59.7366 22.672C59.7016 23.816 59.9 24.7867 60.3317 25.6013C60.7635 26.416 61.3877 26.8204 62.2162 26.8204C64.4565 26.8204 66.1776 24.7058 67.3795 20.4707H64.3048L64.7191 18.9973H72.8811C72.2627 21.8053 70.9325 24.0529 68.9022 25.7458C66.8719 27.4329 64.5032 28.2764 61.8019 28.2764C58.9257 28.2764 56.872 27.4444 55.641 25.7862C54.41 24.128 54.1708 21.9035 54.9292 19.1244C55.7052 16.3338 57.1754 14.0978 59.3457 12.4222C61.5161 10.7467 64.0715 9.90887 67.0177 9.90887C68.9139 9.90887 70.4424 10.3307 71.6034 11.1684C72.7645 12.012 73.3829 13.0173 73.4471 14.1844L73.4529 14.1902Z" fill="#DB3832"/>
<path d="M73.0153 27.9587L77.9219 10.2787H83.1902L78.6687 26.4391H86.2123L85.7981 27.9587H73.0153Z" fill="#DB3832"/>
<path d="M88.8727 19.1302C89.6837 16.2356 91.0081 13.9765 92.8517 12.3529C94.6953 10.7293 96.9998 9.91467 99.7769 9.91467C102.554 9.91467 104.403 10.7236 105.343 12.3529C106.282 13.9765 106.346 16.2356 105.535 19.1302C104.742 22.0076 103.423 24.2609 101.568 25.8845C99.7186 27.508 97.4082 28.3227 94.6311 28.3227C91.854 28.3227 90.0279 27.508 89.0886 25.8845C88.1493 24.2609 88.0793 22.0076 88.8669 19.1302H88.8727ZM93.9835 19.1302C93.6918 20.1876 93.4818 21.1582 93.3534 22.048C93.2251 22.9378 93.1784 23.7582 93.2134 24.4978C93.2484 25.2373 93.4176 25.8209 93.7268 26.2427C94.036 26.6644 94.4736 26.8724 95.0454 26.8724C96.1655 26.8724 97.1865 26.1445 98.1083 24.6942C99.0301 23.2382 99.8002 21.3893 100.419 19.136C101.055 17.0965 101.311 15.2996 101.195 13.7396C101.072 12.1796 100.465 11.3996 99.3627 11.3996C98.26 11.3996 97.2507 12.1276 96.3289 13.5893C95.4071 15.0511 94.6253 16.9 93.9894 19.136L93.9835 19.1302Z" fill="#DB3832"/>
<path d="M119.088 11.5382H120.098L119.502 23.764L125.879 10.2729H130.733L122.209 27.9529H117.122L117.612 18.6102L112.834 27.9529H107.799L109.141 10.2729H113.995L112.834 23.764L119.082 11.5382H119.088Z" fill="#DB3832"/>
<path d="M128.003 27.9587L132.909 10.2787H145.797L145.383 11.7982H137.764L136.136 17.5471H143.341L142.927 19.0436H135.722L133.242 27.9587H127.997H128.003Z" fill="white"/>
<path d="M156.567 10.2787L157.909 27.9587H152.437L152.18 23.5965H146.369L143.784 27.9587H140.476L151.556 10.2787H156.567ZM147.215 22.1231H152.279L152.022 13.936L147.215 22.1231Z" fill="white"/>
<path d="M174.671 22.7876L177.045 23.7698C176.234 24.8271 175.295 25.7054 174.227 26.4102C173.16 27.1151 172.156 27.6062 171.217 27.8778C170.278 28.1494 169.373 28.2822 168.492 28.2822C165.254 28.2822 163.014 27.4676 161.777 25.8325C160.54 24.2031 160.307 21.9729 161.083 19.1534C161.876 16.3049 163.341 14.0516 165.476 12.3991C167.611 10.7467 170.284 9.92047 173.481 9.92047C175.219 9.92047 176.637 10.3249 177.728 11.1396C178.819 11.9542 179.455 12.9711 179.624 14.196L175.931 15.2245C176.036 14.0574 175.785 13.1271 175.196 12.4338C174.601 11.7405 173.842 11.3996 172.909 11.3996C172.15 11.3996 171.404 11.6538 170.674 12.1565C169.945 12.6649 169.303 13.3178 168.749 14.1209C168.201 14.924 167.722 15.756 167.331 16.6111C166.935 17.4662 166.614 18.3156 166.375 19.1534C166.135 20.02 165.972 20.8809 165.896 21.7302C165.82 22.5796 165.838 23.4 165.949 24.1974C166.06 24.9947 166.357 25.6418 166.841 26.1329C167.326 26.624 167.967 26.8725 168.778 26.8725C169.793 26.8725 170.809 26.5258 171.824 25.8267C172.839 25.1276 173.784 24.1165 174.665 22.7934L174.671 22.7876Z" fill="white"/>
<path d="M181.619 27.9587L186.141 11.7751H181.386L181.8 10.2787H196.573L196.158 11.7751H191.403L186.882 27.9587H181.614H181.619Z" fill="white"/>
<path d="M194.846 19.1302C195.657 16.2356 196.981 13.9765 198.825 12.3529C200.668 10.7293 202.973 9.91467 205.744 9.91467C208.515 9.91467 210.37 10.7236 211.31 12.3529C212.249 13.9822 212.313 16.2356 211.502 19.1302C210.709 22.0076 209.39 24.2609 207.541 25.8845C205.691 27.508 203.375 28.3227 200.604 28.3227C197.833 28.3227 196.001 27.508 195.061 25.8845C194.122 24.2609 194.046 22.0076 194.84 19.1302H194.846ZM199.962 19.1302C199.67 20.1876 199.46 21.1582 199.326 22.048C199.198 22.9378 199.151 23.7582 199.186 24.4978C199.221 25.2373 199.39 25.8209 199.706 26.2427C200.015 26.6644 200.452 26.8724 201.024 26.8724C202.144 26.8724 203.165 26.1445 204.087 24.6942C205.009 23.2382 205.779 21.3893 206.397 19.136C207.033 17.0965 207.29 15.2996 207.173 13.7396C207.051 12.1796 206.444 11.3996 205.341 11.3996C204.239 11.3996 203.229 12.1276 202.308 13.5893C201.386 15.0511 200.61 16.9 199.968 19.136L199.962 19.1302Z" fill="white"/>
<path d="M216.671 10.2787H224.005C226.899 10.2787 228.958 10.6716 230.178 11.4631C231.397 12.2547 231.823 13.3467 231.444 14.7449C231.169 15.756 230.609 16.5822 229.763 17.2236C228.917 17.8649 227.879 18.4196 226.636 18.8934C228.597 19.708 229.303 21.1409 228.754 23.192L227.412 27.9587H222.016L223.433 22.8685C223.743 21.8169 223.754 21.0311 223.474 20.5169C223.188 20.0027 222.593 19.7485 221.677 19.7485H219.303L217.004 27.9587H211.759L216.666 10.2787H216.671ZM222.196 11.7751H221.526L219.717 18.2751H220.364C222.208 18.2751 223.556 18.0498 224.408 17.5991C225.259 17.1485 225.884 16.2125 226.28 14.7911C226.455 14.2942 226.485 13.8667 226.385 13.5085C226.28 13.1502 226.129 12.8614 225.93 12.6418C225.732 12.4222 225.429 12.2489 225.014 12.116C224.6 11.9889 224.174 11.8965 223.737 11.8502C223.299 11.7982 222.786 11.7751 222.202 11.7751H222.196Z" fill="white"/>
<path d="M234.594 27.9587L236.788 20.0489L233.351 10.2787H238.596L241.204 18.0209L248.643 10.2787H250.994L242.184 19.5578L239.833 27.9587H234.588H234.594Z" fill="white"/>
<path d="M119.975 30.8765L120.634 39.5431H117.951L117.822 37.4054H114.975L113.709 39.5431H112.087L117.519 30.8765H119.975ZM115.389 36.6831H117.869L117.74 32.6676L115.383 36.6831H115.389Z" fill="#DB3832"/>
<path d="M127.052 38.948H126.358L125.698 33.8116L124.106 39.5431H121.714L124.117 30.8765H126.55L127.209 37.1858L131.311 30.8765H133.732L131.311 39.5431H128.907L130.465 33.9445L127.058 38.948H127.052Z" fill="#DB3832"/>
<path d="M132.764 39.5431L135.167 30.8765H138.825C139.245 30.8765 139.63 30.8938 139.986 30.9342C140.336 30.9747 140.681 31.0382 141.013 31.1365C141.346 31.2289 141.608 31.356 141.801 31.5062C141.993 31.6622 142.139 31.8529 142.244 32.0956C142.349 32.3325 142.349 32.6156 142.238 32.9334C142.011 33.7538 141.299 34.3605 140.109 34.7591C141.462 35.0827 141.982 35.8222 141.667 36.9836C141.538 37.44 141.293 37.8387 140.92 38.1796C140.546 38.5205 140.103 38.7862 139.584 38.9827C139.065 39.1734 138.522 39.3178 137.962 39.4102C137.402 39.5027 136.824 39.5547 136.235 39.5547H132.764V39.5431ZM135.535 38.8209H136.346C137.174 38.8209 137.799 38.6822 138.219 38.4107C138.639 38.1334 138.942 37.6538 139.129 36.9662C139.315 36.296 139.263 35.828 138.965 35.568C138.668 35.308 138.137 35.1751 137.373 35.1751H136.55L135.535 38.8209ZM136.743 34.4934H137.413C138.02 34.4934 138.51 34.3894 138.89 34.1814C139.263 33.9734 139.531 33.5978 139.683 33.0605C139.841 32.4885 139.823 32.1014 139.619 31.9049C139.415 31.7085 138.989 31.6045 138.329 31.6045H137.559L136.748 34.4991L136.743 34.4934Z" fill="#DB3832"/>
<path d="M142.39 39.5431L144.794 30.8765H147.367L144.945 39.5431H142.384H142.39Z" fill="#DB3832"/>
<path d="M146.655 39.5431L149.059 30.8765H155.418L155.214 31.6218H151.439L150.575 34.6725H153.942L153.738 35.4062H150.371L149.42 38.8036H153.323L153.119 39.5489H146.649L146.655 39.5431Z" fill="#DB3832"/>
<path d="M154.333 39.5431L156.736 30.8765H159.029L160.914 37.0702L162.635 30.8765H165.068L162.646 39.5431H160.482L158.469 33.3551L156.748 39.5431H154.327H154.333Z" fill="#DB3832"/>
<path d="M165.855 39.5431L168.072 31.6102H165.744L165.949 30.8765H173.195L172.991 31.6102H170.663L168.446 39.5431H165.861H165.855Z" fill="#DB3832"/>
<path d="M176.975 39.5431L179.379 30.8765H181.964L179.747 38.8036H183.446L183.241 39.5489H176.97L176.975 39.5431Z" fill="#DB3832"/>
<path d="M184.572 39.5431L186.975 30.8765H189.548L187.127 39.5431H184.566H184.572Z" fill="#DB3832"/>
<path d="M198.731 32.7947L196.934 33.3089C197.01 32.7658 196.905 32.3151 196.619 31.9569C196.333 31.5987 195.919 31.4253 195.377 31.4253C194.974 31.4253 194.548 31.6275 194.11 32.0262C193.673 32.4307 193.294 32.916 192.979 33.4822C192.664 34.0542 192.419 34.632 192.249 35.2155C192.103 35.8164 192.028 36.3942 192.01 36.9547C191.993 37.5151 192.092 37.9947 192.302 38.3933C192.512 38.792 192.821 38.9884 193.224 38.9884C194.321 38.9884 195.166 37.9484 195.756 35.8742H194.251L194.455 35.152H198.457C198.154 36.5271 197.5 37.6307 196.508 38.4569C195.511 39.2831 194.35 39.6991 193.025 39.6991C191.613 39.6991 190.61 39.2889 190.003 38.48C189.396 37.6653 189.286 36.5791 189.653 35.2155C190.032 33.8462 190.756 32.7484 191.818 31.928C192.879 31.1075 194.134 30.6973 195.581 30.6973C196.508 30.6973 197.261 30.9053 197.827 31.3155C198.399 31.7258 198.702 32.2227 198.731 32.7947Z" fill="#DB3832"/>
<path d="M198.515 39.5431L200.919 30.8765H203.504L202.529 34.3547H205.376L206.351 30.8765H208.924L206.502 39.5431H203.929L205.172 35.0769H202.325L201.082 39.5431H198.509H198.515Z" fill="#DB3832"/>
<path d="M209.711 39.5431L211.928 31.6102H209.6L209.805 30.8765H217.051L216.846 31.6102H214.519L212.302 39.5431H209.717H209.711Z" fill="#DB3832"/>
<path d="M216.018 39.5431L218.422 30.8765H220.995L218.573 39.5431H216.012H216.018Z" fill="#DB3832"/>
<path d="M220.283 39.5431L222.687 30.8765H224.979L226.864 37.0702L228.585 30.8765H231.018L228.597 39.5431H226.432L224.419 33.3551L222.698 39.5431H220.277H220.283Z" fill="#DB3832"/>
<path d="M239.956 32.7947L238.159 33.3089C238.235 32.7658 238.13 32.3151 237.844 31.9569C237.558 31.5987 237.144 31.4253 236.601 31.4253C236.199 31.4253 235.773 31.6275 235.335 32.0262C234.898 32.4307 234.518 32.916 234.203 33.4822C233.888 34.0542 233.643 34.632 233.474 35.2155C233.328 35.8164 233.252 36.3942 233.235 36.9547C233.217 37.5151 233.316 37.9947 233.527 38.3933C233.737 38.792 234.046 38.9884 234.448 38.9884C235.545 38.9884 236.391 37.9484 236.98 35.8742H235.475L235.679 35.152H239.682C239.378 36.5271 238.725 37.6307 237.733 38.4569C236.735 39.2831 235.574 39.6991 234.25 39.6991C232.838 39.6991 231.835 39.2889 231.228 38.48C230.621 37.6653 230.51 36.5791 230.878 35.2155C231.257 33.8462 231.98 32.7484 233.042 31.928C234.104 31.1075 235.358 30.6973 236.805 30.6973C237.733 30.6973 238.486 30.9053 239.052 31.3155C239.623 31.7258 239.927 32.2227 239.956 32.7947Z" fill="#DB3832"/>
<path d="M111.095 34.684H54.8884V35.4351H111.095V34.684Z" fill="#DB3832"/>
<path d="M8.99054 18.1422L22.736 10.2787L31.7207 15.4209L40.7112 10.2787L22.736 0L0 13V33.5631L8.99054 28.4209V18.1422Z" fill="url(#paint6_radial_183_3134)"/>
<path d="M0.810959 13.4622L22.736 0.924438L39.0951 10.2787L31.7207 14.4964L22.736 9.35422L8.18542 17.68V27.9587L0.810959 32.1707V13.4622Z" fill="url(#paint7_linear_183_3134)"/>
<path d="M22.736 41.7156L8.99638 33.8578L0 39L22.736 52L32.3449 46.5053V36.2209L22.736 41.7156Z" fill="#C6322D"/>
<path d="M36.4814 18.1422L22.736 26V36.2036L36.4814 28.3458C36.4814 28.3458 45.472 22.6084 45.472 35.9436V13L36.4814 18.1422Z" fill="#C6322D"/>
<path d="M23.5469 26.4622L44.6668 14.3867V28.548C43.5175 26.8089 41.9189 26.312 40.472 26.312C38.1908 26.312 36.1313 27.612 36.0438 27.664L23.5469 34.8111V26.4622Z" fill="url(#paint8_linear_183_3134)"/>
<path d="M36.4814 28.34V33.852L32.3449 36.2151V46.4996L45.4719 38.9942V35.9378C45.4719 22.6027 36.4814 28.34 36.4814 28.34Z" fill="url(#paint9_linear_183_3134)"/>
<path d="M36.4814 28.34V33.852L32.3449 36.2151L22.736 41.7098L8.99637 33.852L0 39L22.736 52L32.3449 46.5053L45.4719 39V35.9435C45.4719 22.6084 36.4814 28.3458 36.4814 28.3458V28.34Z" fill="url(#paint10_linear_183_3134)"/>
<path d="M1.62192 39L8.99638 34.7822L22.736 42.64L37.2865 34.32V28.808C37.8933 28.4902 39.171 27.9182 40.472 27.9182C43.2549 27.9182 44.6668 30.6164 44.6668 35.9435V38.5378L22.7418 51.0755L1.62192 39Z" fill="url(#paint11_linear_183_3134)"/>
<path d="M73.4529 14.1902L69.7832 15.236C69.9407 14.1267 69.7248 13.2022 69.1356 12.48C68.5463 11.7578 67.7062 11.388 66.6035 11.388C65.7751 11.388 64.9174 11.7982 64.019 12.6187C63.1205 13.4391 62.3504 14.4271 61.7086 15.5884C61.061 16.7498 60.5709 17.9284 60.2267 19.1244C59.935 20.3493 59.7716 21.5338 59.7366 22.672C59.7016 23.816 59.9 24.7867 60.3317 25.6013C60.7635 26.416 61.3877 26.8204 62.2162 26.8204C64.4565 26.8204 66.1776 24.7058 67.3795 20.4707H64.3048L64.7191 18.9973H72.8811C72.2627 21.8053 70.9325 24.0529 68.9022 25.7458C66.8719 27.4329 64.5032 28.2764 61.8019 28.2764C58.9257 28.2764 56.872 27.4444 55.641 25.7862C54.41 24.128 54.1708 21.9035 54.9292 19.1244C55.7052 16.3338 57.1754 14.0978 59.3457 12.4222C61.5161 10.7467 64.0715 9.90887 67.0177 9.90887C68.9139 9.90887 70.4424 10.3307 71.6034 11.1684C72.7645 12.012 73.3829 13.0173 73.4471 14.1844L73.4529 14.1902Z" fill="#DB3832"/>
<path d="M73.0153 27.9587L77.9219 10.2787H83.1902L78.6687 26.4391H86.2123L85.7981 27.9587H73.0153Z" fill="#DB3832"/>
<path d="M88.8727 19.1302C89.6837 16.2356 91.0081 13.9765 92.8517 12.3529C94.6953 10.7293 96.9998 9.91467 99.7769 9.91467C102.554 9.91467 104.403 10.7236 105.343 12.3529C106.282 13.9765 106.346 16.2356 105.535 19.1302C104.742 22.0076 103.423 24.2609 101.568 25.8845C99.7186 27.508 97.4082 28.3227 94.6311 28.3227C91.854 28.3227 90.0279 27.508 89.0886 25.8845C88.1493 24.2609 88.0793 22.0076 88.8669 19.1302H88.8727ZM93.9835 19.1302C93.6918 20.1876 93.4818 21.1582 93.3534 22.048C93.2251 22.9378 93.1784 23.7582 93.2134 24.4978C93.2484 25.2373 93.4176 25.8209 93.7268 26.2427C94.036 26.6644 94.4736 26.8724 95.0454 26.8724C96.1655 26.8724 97.1865 26.1445 98.1083 24.6942C99.0301 23.2382 99.8002 21.3893 100.419 19.136C101.055 17.0965 101.311 15.2996 101.195 13.7396C101.072 12.1796 100.465 11.3996 99.3627 11.3996C98.26 11.3996 97.2507 12.1276 96.3289 13.5893C95.4071 15.0511 94.6253 16.9 93.9894 19.136L93.9835 19.1302Z" fill="#DB3832"/>
<path d="M119.088 11.5382H120.098L119.502 23.764L125.879 10.2729H130.733L122.209 27.9529H117.122L117.612 18.6102L112.834 27.9529H107.799L109.141 10.2729H113.995L112.834 23.764L119.082 11.5382H119.088Z" fill="#DB3832"/>
<path d="M128.003 27.9587L132.909 10.2787H145.797L145.383 11.7982H137.764L136.136 17.5471H143.341L142.927 19.0436H135.722L133.242 27.9587H127.997H128.003Z" fill="white"/>
<path d="M156.567 10.2787L157.909 27.9587H152.437L152.18 23.5965H146.369L143.784 27.9587H140.476L151.556 10.2787H156.567ZM147.215 22.1231H152.279L152.022 13.936L147.215 22.1231Z" fill="white"/>
<path d="M174.671 22.7876L177.045 23.7698C176.234 24.8271 175.295 25.7054 174.227 26.4102C173.16 27.1151 172.156 27.6062 171.217 27.8778C170.278 28.1494 169.373 28.2822 168.492 28.2822C165.254 28.2822 163.014 27.4676 161.777 25.8325C160.54 24.2031 160.307 21.9729 161.083 19.1534C161.876 16.3049 163.341 14.0516 165.476 12.3991C167.611 10.7467 170.284 9.92047 173.481 9.92047C175.219 9.92047 176.637 10.3249 177.728 11.1396C178.819 11.9542 179.455 12.9711 179.624 14.196L175.931 15.2245C176.036 14.0574 175.785 13.1271 175.196 12.4338C174.601 11.7405 173.842 11.3996 172.909 11.3996C172.15 11.3996 171.404 11.6538 170.674 12.1565C169.945 12.6649 169.303 13.3178 168.749 14.1209C168.201 14.924 167.722 15.756 167.331 16.6111C166.935 17.4662 166.614 18.3156 166.375 19.1534C166.135 20.02 165.972 20.8809 165.896 21.7302C165.82 22.5796 165.838 23.4 165.949 24.1974C166.06 24.9947 166.357 25.6418 166.841 26.1329C167.326 26.624 167.967 26.8725 168.778 26.8725C169.793 26.8725 170.809 26.5258 171.824 25.8267C172.839 25.1276 173.784 24.1165 174.665 22.7934L174.671 22.7876Z" fill="white"/>
<path d="M181.619 27.9587L186.141 11.7751H181.386L181.8 10.2787H196.573L196.158 11.7751H191.403L186.882 27.9587H181.614H181.619Z" fill="white"/>
<path d="M194.846 19.1302C195.657 16.2356 196.981 13.9765 198.825 12.3529C200.668 10.7293 202.973 9.91467 205.744 9.91467C208.515 9.91467 210.37 10.7236 211.31 12.3529C212.249 13.9822 212.313 16.2356 211.502 19.1302C210.709 22.0076 209.39 24.2609 207.541 25.8845C205.691 27.508 203.375 28.3227 200.604 28.3227C197.833 28.3227 196.001 27.508 195.061 25.8845C194.122 24.2609 194.046 22.0076 194.84 19.1302H194.846ZM199.962 19.1302C199.67 20.1876 199.46 21.1582 199.326 22.048C199.198 22.9378 199.151 23.7582 199.186 24.4978C199.221 25.2373 199.39 25.8209 199.706 26.2427C200.015 26.6644 200.452 26.8724 201.024 26.8724C202.144 26.8724 203.165 26.1445 204.087 24.6942C205.009 23.2382 205.779 21.3893 206.397 19.136C207.033 17.0965 207.29 15.2996 207.173 13.7396C207.051 12.1796 206.444 11.3996 205.341 11.3996C204.239 11.3996 203.229 12.1276 202.308 13.5893C201.386 15.0511 200.61 16.9 199.968 19.136L199.962 19.1302Z" fill="white"/>
<path d="M216.671 10.2787H224.005C226.899 10.2787 228.958 10.6716 230.178 11.4631C231.397 12.2547 231.823 13.3467 231.444 14.7449C231.169 15.756 230.609 16.5822 229.763 17.2236C228.917 17.8649 227.879 18.4196 226.636 18.8934C228.597 19.708 229.303 21.1409 228.754 23.192L227.412 27.9587H222.016L223.433 22.8685C223.743 21.8169 223.754 21.0311 223.474 20.5169C223.188 20.0027 222.593 19.7485 221.677 19.7485H219.303L217.004 27.9587H211.759L216.666 10.2787H216.671ZM222.196 11.7751H221.526L219.717 18.2751H220.364C222.208 18.2751 223.556 18.0498 224.408 17.5991C225.259 17.1485 225.884 16.2125 226.28 14.7911C226.455 14.2942 226.485 13.8667 226.385 13.5085C226.28 13.1502 226.129 12.8614 225.93 12.6418C225.732 12.4222 225.429 12.2489 225.014 12.116C224.6 11.9889 224.174 11.8965 223.737 11.8502C223.299 11.7982 222.786 11.7751 222.202 11.7751H222.196Z" fill="white"/>
<path d="M234.594 27.9587L236.788 20.0489L233.351 10.2787H238.596L241.204 18.0209L248.643 10.2787H250.994L242.184 19.5578L239.833 27.9587H234.588H234.594Z" fill="white"/>
<path d="M119.975 30.8765L120.634 39.5431H117.951L117.822 37.4054H114.975L113.709 39.5431H112.087L117.519 30.8765H119.975ZM115.389 36.6831H117.869L117.74 32.6676L115.383 36.6831H115.389Z" fill="#DB3832"/>
<path d="M127.052 38.948H126.358L125.698 33.8116L124.106 39.5431H121.714L124.117 30.8765H126.55L127.209 37.1858L131.311 30.8765H133.732L131.311 39.5431H128.907L130.465 33.9445L127.058 38.948H127.052Z" fill="#DB3832"/>
<path d="M132.764 39.5431L135.167 30.8765H138.825C139.245 30.8765 139.63 30.8938 139.986 30.9342C140.336 30.9747 140.681 31.0382 141.013 31.1365C141.346 31.2289 141.608 31.356 141.801 31.5062C141.993 31.6622 142.139 31.8529 142.244 32.0956C142.349 32.3325 142.349 32.6156 142.238 32.9334C142.011 33.7538 141.299 34.3605 140.109 34.7591C141.462 35.0827 141.982 35.8222 141.667 36.9836C141.538 37.44 141.293 37.8387 140.92 38.1796C140.546 38.5205 140.103 38.7862 139.584 38.9827C139.065 39.1734 138.522 39.3178 137.962 39.4102C137.402 39.5027 136.824 39.5547 136.235 39.5547H132.764V39.5431ZM135.535 38.8209H136.346C137.174 38.8209 137.799 38.6822 138.219 38.4107C138.639 38.1334 138.942 37.6538 139.129 36.9662C139.315 36.296 139.263 35.828 138.965 35.568C138.668 35.308 138.137 35.1751 137.373 35.1751H136.55L135.535 38.8209ZM136.743 34.4934H137.413C138.02 34.4934 138.51 34.3894 138.89 34.1814C139.263 33.9734 139.531 33.5978 139.683 33.0605C139.841 32.4885 139.823 32.1014 139.619 31.9049C139.415 31.7085 138.989 31.6045 138.329 31.6045H137.559L136.748 34.4991L136.743 34.4934Z" fill="#DB3832"/>
<path d="M142.39 39.5431L144.794 30.8765H147.367L144.945 39.5431H142.384H142.39Z" fill="#DB3832"/>
<path d="M146.655 39.5431L149.059 30.8765H155.418L155.214 31.6218H151.439L150.575 34.6725H153.942L153.738 35.4062H150.371L149.42 38.8036H153.323L153.119 39.5489H146.649L146.655 39.5431Z" fill="#DB3832"/>
<path d="M154.333 39.5431L156.736 30.8765H159.029L160.914 37.0702L162.635 30.8765H165.068L162.646 39.5431H160.482L158.469 33.3551L156.748 39.5431H154.327H154.333Z" fill="#DB3832"/>
<path d="M165.855 39.5431L168.072 31.6102H165.744L165.949 30.8765H173.195L172.991 31.6102H170.663L168.446 39.5431H165.861H165.855Z" fill="#DB3832"/>
<path d="M176.975 39.5431L179.379 30.8765H181.964L179.747 38.8036H183.446L183.241 39.5489H176.97L176.975 39.5431Z" fill="#DB3832"/>
<path d="M184.572 39.5431L186.975 30.8765H189.548L187.127 39.5431H184.566H184.572Z" fill="#DB3832"/>
<path d="M198.731 32.7947L196.934 33.3089C197.01 32.7658 196.905 32.3151 196.619 31.9569C196.333 31.5987 195.919 31.4253 195.377 31.4253C194.974 31.4253 194.548 31.6275 194.11 32.0262C193.673 32.4307 193.294 32.916 192.979 33.4822C192.664 34.0542 192.419 34.632 192.249 35.2155C192.103 35.8164 192.028 36.3942 192.01 36.9547C191.993 37.5151 192.092 37.9947 192.302 38.3933C192.512 38.792 192.821 38.9884 193.224 38.9884C194.321 38.9884 195.166 37.9484 195.756 35.8742H194.251L194.455 35.152H198.457C198.154 36.5271 197.5 37.6307 196.508 38.4569C195.511 39.2831 194.35 39.6991 193.025 39.6991C191.613 39.6991 190.61 39.2889 190.003 38.48C189.396 37.6653 189.286 36.5791 189.653 35.2155C190.032 33.8462 190.756 32.7484 191.818 31.928C192.879 31.1075 194.134 30.6973 195.581 30.6973C196.508 30.6973 197.261 30.9053 197.827 31.3155C198.399 31.7258 198.702 32.2227 198.731 32.7947Z" fill="#DB3832"/>
<path d="M198.515 39.5431L200.919 30.8765H203.504L202.529 34.3547H205.376L206.351 30.8765H208.924L206.502 39.5431H203.929L205.172 35.0769H202.325L201.082 39.5431H198.509H198.515Z" fill="#DB3832"/>
<path d="M209.711 39.5431L211.928 31.6102H209.6L209.805 30.8765H217.051L216.846 31.6102H214.519L212.302 39.5431H209.717H209.711Z" fill="#DB3832"/>
<path d="M216.018 39.5431L218.422 30.8765H220.995L218.573 39.5431H216.012H216.018Z" fill="#DB3832"/>
<path d="M220.283 39.5431L222.687 30.8765H224.979L226.864 37.0702L228.585 30.8765H231.018L228.597 39.5431H226.432L224.419 33.3551L222.698 39.5431H220.277H220.283Z" fill="#DB3832"/>
<path d="M239.956 32.7947L238.159 33.3089C238.235 32.7658 238.13 32.3151 237.844 31.9569C237.558 31.5987 237.144 31.4253 236.601 31.4253C236.199 31.4253 235.773 31.6275 235.335 32.0262C234.898 32.4307 234.518 32.916 234.203 33.4822C233.888 34.0542 233.643 34.632 233.474 35.2155C233.328 35.8164 233.252 36.3942 233.235 36.9547C233.217 37.5151 233.316 37.9947 233.527 38.3933C233.737 38.792 234.046 38.9884 234.448 38.9884C235.545 38.9884 236.391 37.9484 236.98 35.8742H235.475L235.679 35.152H239.682C239.378 36.5271 238.725 37.6307 237.733 38.4569C236.735 39.2831 235.574 39.6991 234.25 39.6991C232.838 39.6991 231.835 39.2889 231.228 38.48C230.621 37.6653 230.51 36.5791 230.878 35.2155C231.257 33.8462 231.98 32.7484 233.042 31.928C234.104 31.1075 235.358 30.6973 236.805 30.6973C237.733 30.6973 238.486 30.9053 239.052 31.3155C239.623 31.7258 239.927 32.2227 239.956 32.7947Z" fill="#DB3832"/>
<path d="M111.095 34.684H54.8884V35.4351H111.095V34.684Z" fill="#DB3832"/>
</g>
<defs>
<radialGradient id="paint0_radial_183_3134" cx="0" cy="0" r="1" gradientUnits="userSpaceOnUse" gradientTransform="translate(29.4453 12.5031) scale(30.6472 30.3507)">
<stop stop-color="#B8BABC"/>
<stop offset="1" stop-color="#545456"/>
</radialGradient>
<linearGradient id="paint1_linear_183_3134" x1="19.9531" y1="1.19022" x2="19.9531" y2="8.96133" gradientUnits="userSpaceOnUse">
<stop stop-color="white"/>
<stop offset="0.12" stop-color="white" stop-opacity="0.77"/>
<stop offset="0.25" stop-color="white" stop-opacity="0.56"/>
<stop offset="0.37" stop-color="white" stop-opacity="0.39"/>
<stop offset="0.5" stop-color="white" stop-opacity="0.25"/>
<stop offset="0.62" stop-color="white" stop-opacity="0.14"/>
<stop offset="0.75" stop-color="white" stop-opacity="0.06"/>
<stop offset="0.87" stop-color="white" stop-opacity="0.02"/>
<stop offset="1" stop-color="white" stop-opacity="0"/>
</linearGradient>
<linearGradient id="paint2_linear_183_3134" x1="28.226" y1="20.3551" x2="32.8618" y2="23.7665" gradientUnits="userSpaceOnUse">
<stop stop-color="white"/>
<stop offset="0.12" stop-color="white" stop-opacity="0.77"/>
<stop offset="0.25" stop-color="white" stop-opacity="0.56"/>
<stop offset="0.37" stop-color="white" stop-opacity="0.39"/>
<stop offset="0.5" stop-color="white" stop-opacity="0.25"/>
<stop offset="0.62" stop-color="white" stop-opacity="0.14"/>
<stop offset="0.75" stop-color="white" stop-opacity="0.06"/>
<stop offset="0.87" stop-color="white" stop-opacity="0.02"/>
<stop offset="1" stop-color="white" stop-opacity="0"/>
</linearGradient>
<linearGradient id="paint3_linear_183_3134" x1="43.6867" y1="31.5813" x2="35.6831" y2="37.8737" gradientUnits="userSpaceOnUse">
<stop stop-color="#650900"/>
<stop offset="1" stop-color="#C6322D"/>
</linearGradient>
<linearGradient id="paint4_linear_183_3134" x1="37.8875" y1="27.3115" x2="21.556" y2="40.1535" gradientUnits="userSpaceOnUse">
<stop stop-color="#650900"/>
<stop offset="1" stop-color="#C6322D"/>
</linearGradient>
<linearGradient id="paint5_linear_183_3134" x1="23.1444" y1="50.6653" x2="23.1444" y2="43.2409" gradientUnits="userSpaceOnUse">
<stop stop-color="white"/>
<stop offset="0.12" stop-color="white" stop-opacity="0.77"/>
<stop offset="0.25" stop-color="white" stop-opacity="0.56"/>
<stop offset="0.37" stop-color="white" stop-opacity="0.39"/>
<stop offset="0.5" stop-color="white" stop-opacity="0.25"/>
<stop offset="0.62" stop-color="white" stop-opacity="0.14"/>
<stop offset="0.75" stop-color="white" stop-opacity="0.06"/>
<stop offset="0.87" stop-color="white" stop-opacity="0.02"/>
<stop offset="1" stop-color="white" stop-opacity="0"/>
</linearGradient>
<radialGradient id="paint6_radial_183_3134" cx="0" cy="0" r="1" gradientUnits="userSpaceOnUse" gradientTransform="translate(29.4453 12.5031) scale(30.6472 30.3507)">
<stop stop-color="#B8BABC"/>
<stop offset="1" stop-color="#545456"/>
</radialGradient>
<linearGradient id="paint7_linear_183_3134" x1="19.9531" y1="1.19022" x2="19.9531" y2="8.96133" gradientUnits="userSpaceOnUse">
<stop stop-color="white"/>
<stop offset="0.12" stop-color="white" stop-opacity="0.77"/>
<stop offset="0.25" stop-color="white" stop-opacity="0.56"/>
<stop offset="0.37" stop-color="white" stop-opacity="0.39"/>
<stop offset="0.5" stop-color="white" stop-opacity="0.25"/>
<stop offset="0.62" stop-color="white" stop-opacity="0.14"/>
<stop offset="0.75" stop-color="white" stop-opacity="0.06"/>
<stop offset="0.87" stop-color="white" stop-opacity="0.02"/>
<stop offset="1" stop-color="white" stop-opacity="0"/>
</linearGradient>
<linearGradient id="paint8_linear_183_3134" x1="28.226" y1="20.3551" x2="32.8618" y2="23.7665" gradientUnits="userSpaceOnUse">
<stop stop-color="white"/>
<stop offset="0.12" stop-color="white" stop-opacity="0.77"/>
<stop offset="0.25" stop-color="white" stop-opacity="0.56"/>
<stop offset="0.37" stop-color="white" stop-opacity="0.39"/>
<stop offset="0.5" stop-color="white" stop-opacity="0.25"/>
<stop offset="0.62" stop-color="white" stop-opacity="0.14"/>
<stop offset="0.75" stop-color="white" stop-opacity="0.06"/>
<stop offset="0.87" stop-color="white" stop-opacity="0.02"/>
<stop offset="1" stop-color="white" stop-opacity="0"/>
</linearGradient>
<linearGradient id="paint9_linear_183_3134" x1="43.6867" y1="31.5813" x2="35.6831" y2="37.8737" gradientUnits="userSpaceOnUse">
<stop stop-color="#650900"/>
<stop offset="1" stop-color="#C6322D"/>
</linearGradient>
<linearGradient id="paint10_linear_183_3134" x1="37.8875" y1="27.3115" x2="21.556" y2="40.1535" gradientUnits="userSpaceOnUse">
<stop stop-color="#650900"/>
<stop offset="1" stop-color="#C6322D"/>
</linearGradient>
<linearGradient id="paint11_linear_183_3134" x1="23.1444" y1="50.6653" x2="23.1444" y2="43.2409" gradientUnits="userSpaceOnUse">
<stop stop-color="white"/>
<stop offset="0.12" stop-color="white" stop-opacity="0.77"/>
<stop offset="0.25" stop-color="white" stop-opacity="0.56"/>
<stop offset="0.37" stop-color="white" stop-opacity="0.39"/>
<stop offset="0.5" stop-color="white" stop-opacity="0.25"/>
<stop offset="0.62" stop-color="white" stop-opacity="0.14"/>
<stop offset="0.75" stop-color="white" stop-opacity="0.06"/>
<stop offset="0.87" stop-color="white" stop-opacity="0.02"/>
<stop offset="1" stop-color="white" stop-opacity="0"/>
</linearGradient>
<clipPath id="clip0_183_3134">
<rect width="251" height="52" fill="white"/>
</clipPath>
</defs>
</svg>
