<svg width="24" height="25" viewBox="0 0 24 25" fill="none" xmlns="http://www.w3.org/2000/svg">
<path d="M21 2.5L20 3.5" stroke="#696969" stroke-width="1.5" stroke-linecap="round" stroke-linejoin="round"/>
<path d="M3 2.5L4 3.5" stroke="#696969" stroke-width="1.5" stroke-linecap="round" stroke-linejoin="round"/>
<path d="M21 16.5L20 15.5" stroke="#696969" stroke-width="1.5" stroke-linecap="round" stroke-linejoin="round"/>
<path d="M3 16.5L4 15.5" stroke="#696969" stroke-width="1.5" stroke-linecap="round" stroke-linejoin="round"/>
<path d="M9 18.5H15" stroke="#696969" stroke-width="1.5" stroke-linecap="round" stroke-linejoin="round"/>
<path d="M10 21.5H14" stroke="#696969" stroke-width="1.5" stroke-linecap="round" stroke-linejoin="round"/>
<path d="M11.9998 3.5C7.9997 3.5 5.95186 5.45029 5.99985 8.5C6.02324 9.98689 6.4997 11 7.49985 12C8.5 13 9 13.5 8.99985 15.5H14.9998C15 13.5001 15.5 13 16.4997 12.0001L16.4998 12C17.4997 11 17.9765 9.98689 17.9998 8.5C18.0478 5.45029 16 3.5 11.9998 3.5Z" stroke="#696969" stroke-width="1.5" stroke-linecap="round" stroke-linejoin="round"/>
</svg>
