<svg width="24" height="25" viewBox="0 0 24 25" fill="none" xmlns="http://www.w3.org/2000/svg">
<path d="M12 15.5C13.6569 15.5 15 14.1569 15 12.5C15 10.8431 13.6569 9.5 12 9.5C10.3431 9.5 9 10.8431 9 12.5C9 14.1569 10.3431 15.5 12 15.5Z" stroke="#696969" stroke-width="1.5" stroke-linecap="round" stroke-linejoin="round"/>
<path d="M19.6224 10.8954L18.5247 8.2448L20 6.5L18 4.5L16.2647 5.98295L13.5578 4.86974L12.9353 2.5H10.981L10.3491 4.90113L7.70441 6.01596L6 4.5L4 6.5L5.45337 8.28885L4.3725 10.9463L2 11.5V13.5L4.40111 14.1555L5.51575 16.7997L4 18.5L6 20.5L7.79116 19.0403L10.397 20.1123L11 22.5H13L13.6045 20.1132L16.2551 19.0155C16.6969 19.3313 18 20.5 18 20.5L20 18.5L18.5159 16.7494L19.6139 14.098L21.9999 13.4772L22 11.5L19.6224 10.8954Z" stroke="#696969" stroke-width="1.5" stroke-linecap="round" stroke-linejoin="round"/>
</svg>
